<?xml version="1.0" encoding="UTF-8"?>
<svg xmlns="http://www.w3.org/2000/svg" viewBox="0 0 640 191">
  <defs>
    <style>
      .cls-1 {
        fill: #d51a68;
      }

      .cls-2 {
        fill: #331633;
      }

      .cls-3 {
        fill: #e65825;
      }
    </style>
  </defs>
  <g id="txt">
    <g>
      <path class="cls-2" d="M65.47,73.68v11.78H30.14v23.56h35.33v11.78h-11.78v11.78h-11.78v-11.78h-11.78v35.33h-11.78v-82.44h47.11ZM65.47,144.35h-11.78v-11.78h11.78v11.78ZM77.25,109.01h-11.78v-23.56h11.78v23.56ZM77.25,156.12h-11.78v-11.78h11.78v11.78Z"/>
      <path class="cls-2" d="M100.8,144.35h-11.78v-35.33h11.78v35.33ZM124.36,109.01h-23.56v-11.78h23.56v11.78ZM124.36,156.12h-23.56v-11.78h23.56v11.78ZM136.13,120.79h-11.78v-11.78h11.78v-11.78h11.78v58.89h-11.78v-11.78h-11.78v-11.78h11.78v-11.78Z"/>
      <path class="cls-2" d="M171.47,120.79h-11.78v-23.56h11.78v23.56ZM183.24,179.68h-23.55v-11.78h23.55v11.78ZM183.24,144.35h-11.78v-23.55h11.78v23.55ZM195.02,167.9h-11.78v-23.55h11.78v23.55ZM206.8,144.35h-11.78v-23.55h11.78v23.55ZM218.58,120.79h-11.78v-23.56h11.78v23.56Z"/>
      <path class="cls-2" d="M289.24,73.68v11.78h-47.11v23.56h35.33v11.78h-35.33v35.33h-11.78v-82.44h58.89Z"/>
      <path class="cls-2" d="M312.79,132.57v23.55h-11.78v-58.89h11.78v23.56h11.78v11.78h-11.78ZM336.35,120.79h-11.78v-11.78h11.78v11.78ZM348.12,109.01h-11.78v-11.78h11.78v11.78Z"/>
      <path class="cls-2" d="M371.68,144.35h-11.78v-35.33h11.78v35.33ZM407.01,109.01h-35.33v-11.78h35.33v11.78ZM407.01,156.12h-35.33v-11.78h35.33v11.78ZM418.79,144.35h-11.78v-35.33h11.78v35.33Z"/>
      <path class="cls-2" d="M442.34,120.79v35.33h-11.78v-58.89h11.78v11.78h11.78v11.78h-11.78ZM477.67,109.01h-23.55v-11.78h23.55v11.78ZM489.45,156.12h-11.78v-47.11h11.78v47.11Z"/>
      <path class="cls-2" d="M524.78,97.24h11.78v11.78h-11.78v35.33h11.78v11.78h-23.55v-47.11h-11.78v-11.78h11.78v-23.56h11.78v23.56Z"/>
      <path class="cls-2" d="M560.12,120.79h-11.78v-11.78h11.78v11.78ZM595.45,156.12h-47.11v-11.78h47.11v11.78ZM607.23,109.01h-47.11v-11.78h47.11v11.78ZM595.45,132.57h-35.33v-11.78h35.33v11.78ZM607.23,144.35h-11.78v-11.78h11.78v11.78Z"/>
    </g>
  </g>
  <g id="arr1">
    <rect class="cls-1" x="74.18" y="49.27" width="74.72" height="11.32" transform="translate(-10.48 78.78) rotate(-37.28)"/>
    <polygon class="cls-1" points="146.95 47.13 158.72 19.01 128.49 22.88 146.95 47.13"/>
  </g>
  <g id="arr2">
    <rect class="cls-3" x="78.32" y="73.11" width="126.75" height="11.32"/>
    <polygon class="cls-3" points="200.61 94.01 227 78.77 200.61 63.53 200.61 94.01"/>
  </g>
  <g id="arr3">
    <rect class="cls-1" x="297.46" y="73.11" width="189.44" height="11.32"/>
    <polygon class="cls-1" points="482.44 94.01 508.84 78.77 482.44 63.53 482.44 94.01"/>
  </g>
</svg>