<?xml version="1.0" encoding="UTF-8"?>
<svg id="Layer_1" data-name="Layer 1" xmlns="http://www.w3.org/2000/svg" viewBox="0 0 635.49 442.86">
  <defs>
    <style>
      .cls-1 {
        letter-spacing: 0em;
      }

      .cls-2 {
        fill: #d51a68;
      }

      .cls-3 {
        letter-spacing: 0em;
      }

      .cls-4 {
        letter-spacing: 0em;
      }

      .cls-5, .cls-6, .cls-7, .cls-8, .cls-9, .cls-10, .cls-11 {
        fill: none;
        stroke-miterlimit: 10;
      }

      .cls-5, .cls-6, .cls-7, .cls-8, .cls-10, .cls-11 {
        stroke-width: 4px;
      }

      .cls-5, .cls-6, .cls-7, .cls-8, .cls-11 {
        stroke: #e65825;
      }

      .cls-12 {
        fill: #7a1937;
      }

      .cls-13 {
        font-size: 94.31px;
      }

      .cls-13, .cls-14, .cls-15, .cls-16, .cls-17, .cls-18 {
        font-family: MyriadPro-Regular, 'Myriad Pro';
      }

      .cls-13, .cls-15, .cls-19, .cls-16, .cls-17, .cls-18 {
        fill: #2e132e;
      }

      .cls-6 {
        stroke-dasharray: 6.84 6.84;
      }

      .cls-20 {
        letter-spacing: -.03em;
      }

      .cls-21 {
        letter-spacing: .03em;
      }

      .cls-22 {
        letter-spacing: 0em;
      }

      .cls-14 {
        font-size: 15.94px;
      }

      .cls-7 {
        stroke-dasharray: 6.99 6.99;
      }

      .cls-23 {
        letter-spacing: 0em;
      }

      .cls-15 {
        font-size: 22px;
      }

      .cls-24 {
        letter-spacing: 0em;
      }

      .cls-25 {
        letter-spacing: 0em;
      }

      .cls-26 {
        letter-spacing: -.04em;
      }

      .cls-27 {
        letter-spacing: 0em;
      }

      .cls-8 {
        stroke-dasharray: 6.62 6.62;
      }

      .cls-28 {
        letter-spacing: .01em;
      }

      .cls-29 {
        letter-spacing: -.01em;
      }

      .cls-30 {
        letter-spacing: -.01em;
      }

      .cls-9 {
        stroke: #2e132e;
        stroke-width: 3px;
      }

      .cls-31 {
        letter-spacing: 0em;
      }

      .cls-32 {
        letter-spacing: 0em;
      }

      .cls-33 {
        letter-spacing: .05em;
      }

      .cls-10 {
        stroke: #7a1937;
      }

      .cls-34 {
        letter-spacing: .01em;
      }

      .cls-35 {
        letter-spacing: 0em;
      }

      .cls-36 {
        letter-spacing: 0em;
      }

      .cls-37 {
        letter-spacing: 0em;
      }

      .cls-38 {
        fill: #e65825;
      }

      .cls-16 {
        font-size: 19.19px;
      }

      .cls-39 {
        letter-spacing: .01em;
      }

      .cls-40 {
        letter-spacing: 0em;
      }

      .cls-17 {
        font-size: 16.84px;
      }

      .cls-41 {
        letter-spacing: -.01em;
      }

      .cls-42 {
        letter-spacing: 0em;
      }

      .cls-18 {
        font-size: 74.69px;
      }

      .cls-43 {
        fill: #01ad55;
        opacity: .31;
      }

      .cls-44 {
        letter-spacing: .01em;
      }

      .cls-45 {
        letter-spacing: 0em;
      }

      .cls-11 {
        stroke-dasharray: 7.12 7.12;
      }

      .cls-46 {
        letter-spacing: -.01em;
      }

      .cls-47 {
        fill: #50c6df;
        opacity: .3;
      }

      .cls-48 {
        letter-spacing: 0em;
      }

      .cls-49 {
        letter-spacing: 0em;
      }

      .cls-50 {
        letter-spacing: 0em;
      }
    </style>
  </defs>
  <g>
    <path class="cls-12" d="M112.85,153.37c-.13-.95-.24-1.9-.35-2.85.11.95.22,1.9.35,2.85Z"/>
    <path class="cls-12" d="M112.18,147.29c-.08-.98-.16-1.96-.22-2.93.06.98.14,1.96.22,2.93Z"/>
    <path class="cls-12" d="M112.48,150.34c-.11-.96-.2-1.93-.29-2.89.08.96.18,1.93.29,2.89Z"/>
    <path class="cls-12" d="M113.29,156.4c-.15-.93-.28-1.87-.41-2.8.13.94.26,1.87.41,2.8Z"/>
    <path class="cls-12" d="M111.7,135.01c0-1.02.03-2.03.06-3.05-.03,1.02-.05,2.03-.06,3.05Z"/>
    <path class="cls-12" d="M113.81,159.41c-.17-.92-.32-1.84-.47-2.76.15.92.3,1.84.47,2.76Z"/>
    <path class="cls-12" d="M111.95,144.23c-.06-.99-.11-1.97-.15-2.96.04.99.09,1.98.15,2.96Z"/>
    <path class="cls-12" d="M111.71,138.09c-.02-1.01-.02-2.01-.01-3.02,0,1.01,0,2.01.01,3.02Z"/>
    <path class="cls-12" d="M111.79,141.16c-.04-1-.07-1.99-.08-2.99.02,1,.04,1.99.08,2.99Z"/>
    <path class="cls-12" d="M116.56,171.29c-.24-.84-.47-1.69-.69-2.54.22.85.45,1.7.69,2.54Z"/>
    <path class="cls-12" d="M117.57,174.7c.25.81.51,1.62.78,2.43-.27-.81-.53-1.62-.78-2.43Z"/>
    <path class="cls-12" d="M119.35,180.01c-.28-.79-.56-1.58-.82-2.38.27.79.54,1.59.82,2.38Z"/>
    <path class="cls-12" d="M120.41,182.87c-.3-.77-.58-1.54-.86-2.31.28.77.57,1.54.86,2.31Z"/>
    <path class="cls-12" d="M121.54,185.71c-.31-.75-.61-1.5-.9-2.25.29.75.59,1.51.9,2.25Z"/>
    <path class="cls-12" d="M115.77,168.35c-.22-.86-.43-1.73-.64-2.6.2.87.42,1.74.64,2.6Z"/>
    <path class="cls-12" d="M117.42,174.22c-.25-.83-.5-1.65-.73-2.49.24.83.48,1.66.73,2.49Z"/>
    <path class="cls-12" d="M115.04,165.38c-.2-.88-.4-1.77-.59-2.66.19.89.38,1.77.59,2.66Z"/>
    <path class="cls-12" d="M114.39,162.4c-.19-.9-.36-1.8-.53-2.71.17.91.34,1.81.53,2.71Z"/>
    <path class="cls-12" d="M122.74,188.52c-.32-.73-.63-1.46-.94-2.19.31.73.62,1.47.94,2.19Z"/>
    <path class="cls-12" d="M185.81,19.34c1.4-.66,2.81-1.3,4.23-1.91-1.42.61-2.83,1.25-4.23,1.91Z"/>
    <path class="cls-12" d="M176.97,23.92c1.31-.75,2.64-1.47,3.98-2.17-1.34.7-2.67,1.42-3.98,2.17Z"/>
    <path class="cls-12" d="M181.35,21.55c1.39-.72,2.78-1.41,4.19-2.08-1.41.67-2.81,1.36-4.19,2.08Z"/>
    <path class="cls-12" d="M172.83,26.38c1.31-.81,2.64-1.6,3.98-2.37-1.34.76-2.66,1.55-3.98,2.37Z"/>
    <path class="cls-12" d="M124.01,191.3c-.33-.71-.65-1.42-.97-2.13.32.71.64,1.42.97,2.13Z"/>
    <path class="cls-12" d="M190.18,17.37c1.46-.62,2.93-1.22,4.42-1.79-1.48.57-2.96,1.17-4.42,1.79Z"/>
    <path class="cls-12" d="M125.24,78.57c-8.05,16.19-12.39,33.27-13.35,50.28.93-16.5,5.05-33.07,12.65-48.83.4-.15.8-.31,1.21-.45-.17-.33-.34-.67-.51-1Z"/>
    <path class="cls-12" d="M203.93,12.38c-3.05.92-6.06,1.95-9.04,3.09,2.97-1.14,5.99-2.17,9.04-3.09Z"/>
    <path class="cls-12" d="M164.67,31.87c2.48-1.81,5.02-3.52,7.61-5.14-2.59,1.62-5.13,3.33-7.61,5.14Z"/>
    <path class="cls-12" d="M127.43,74.39c-.74,1.37-1.47,2.74-2.17,4.15,0,0,0,.01,0,.02.7-1.41,1.43-2.79,2.18-4.16Z"/>
    <path class="cls-12" d="M133.34,64.57c.84-1.26,1.69-2.5,2.57-3.73-.88,1.22-1.73,2.47-2.57,3.73Z"/>
    <path class="cls-12" d="M139.31,56.3c.93-1.18,1.87-2.34,2.83-3.47-.96,1.14-1.9,2.3-2.83,3.47Z"/>
    <path class="cls-12" d="M136.33,60.26c.79-1.09,1.6-2.17,2.42-3.23-.82,1.06-1.63,2.14-2.42,3.23Z"/>
    <path class="cls-12" d="M156.9,38c2.32-1.98,4.69-3.86,7.13-5.66-2.44,1.8-4.82,3.69-7.13,5.66Z"/>
    <path class="cls-12" d="M130.5,69.04c.74-1.22,1.5-2.41,2.27-3.6-.77,1.18-1.53,2.38-2.27,3.6Z"/>
    <path class="cls-12" d="M111.76,131.93c.03-1.02.08-2.05.14-3.07-.06,1.03-.1,2.05-.14,3.07Z"/>
    <path class="cls-12" d="M152.87,41.58c1.11-1.03,2.23-2.03,3.37-3.02-1.14.99-2.27,1.99-3.37,3.02Z"/>
    <path class="cls-12" d="M142.7,52.18c.87-1.02,1.76-2.03,2.66-3.02-.9.99-1.79,1.99-2.66,3.02Z"/>
    <path class="cls-12" d="M149.56,44.77c1-.99,2.01-1.97,3.03-2.93-1.03.96-2.03,1.94-3.03,2.93Z"/>
    <path class="cls-12" d="M145.84,48.64c1.01-1.1,2.05-2.18,3.1-3.24-1.05,1.06-2.08,2.14-3.1,3.24Z"/>
    <path class="cls-12" d="M127.96,73.42c.75-1.35,1.51-2.69,2.3-4-.79,1.31-1.55,2.65-2.3,4Z"/>
    <path class="cls-12" d="M191.27,255.7c-.47-.2-.93-.4-1.4-.6.47.2.93.4,1.4.6Z"/>
    <path class="cls-12" d="M165.3,241.16c-.43-.31-.85-.63-1.27-.94.42.31.85.63,1.27.94Z"/>
    <path class="cls-12" d="M187.11,253.87c-.41-.19-.83-.38-1.24-.57.41.2.83.38,1.24.57Z"/>
    <path class="cls-12" d="M200.76,259.25c-.56-.18-1.12-.36-1.67-.55.56.19,1.11.37,1.67.55Z"/>
    <path class="cls-12" d="M195.3,257.32c-.39-.15-.78-.31-1.17-.46.39.15.78.31,1.17.46Z"/>
    <path class="cls-12" d="M170.63,244.81c-.41-.27-.82-.55-1.23-.82.41.27.82.55,1.23.82Z"/>
    <path class="cls-12" d="M205.01,260.58c-.66-.19-1.33-.39-1.99-.6.66.21,1.33.4,1.99.6Z"/>
    <path class="cls-12" d="M167.93,243.01c-.42-.29-.84-.59-1.26-.88.42.29.83.59,1.26.88Z"/>
    <path class="cls-12" d="M176.18,248.22c-.41-.24-.82-.49-1.23-.73.41.24.82.49,1.23.73Z"/>
    <path class="cls-12" d="M173.38,246.54c-.41-.25-.82-.52-1.23-.77.41.26.81.52,1.23.77Z"/>
    <path class="cls-12" d="M179.04,249.83c-.32-.18-.64-.36-.96-.54.32.18.64.37.96.54Z"/>
    <path class="cls-12" d="M237.19,265.68c-1.13-.03-2.26-.09-3.39-.15,1.13.06,2.26.12,3.39.15Z"/>
    <path class="cls-12" d="M213.5,9.89c-3.13.69-6.23,1.5-9.3,2.41,3.07-.92,6.17-1.72,9.3-2.41Z"/>
    <path class="cls-12" d="M223.28,8.11c-3.21.46-6.41,1.04-9.57,1.73,3.17-.69,6.36-1.27,9.57-1.73Z"/>
    <path class="cls-12" d="M223.15,264.49c-.99-.14-1.98-.3-2.98-.46.99.16,1.98.32,2.98.46Z"/>
    <path class="cls-12" d="M215.35,263.14c-1.64-.33-3.27-.7-4.9-1.1,1.63.4,3.26.77,4.9,1.1Z"/>
    <path class="cls-12" d="M233.53,265.52c-3.41-.2-6.83-.54-10.24-1.01,3.41.48,6.83.81,10.24,1.01Z"/>
    <path class="cls-12" d="M219.18,263.86c-.93-.16-1.86-.33-2.79-.51.93.18,1.86.35,2.79.51Z"/>
    <path class="cls-12" d="M209.09,261.7c-.72-.19-1.44-.39-2.16-.58.72.2,1.44.4,2.16.58Z"/>
    <path class="cls-12" d="M157.75,235.27c-.43-.36-.85-.73-1.28-1.1.43.37.85.74,1.28,1.1Z"/>
    <path class="cls-12" d="M136.49,212.44c-.39-.54-.78-1.09-1.16-1.64.39.55.77,1.1,1.16,1.64Z"/>
    <path class="cls-12" d="M132.98,207.36c-.38-.58-.75-1.17-1.13-1.76.37.59.74,1.18,1.13,1.76Z"/>
    <path class="cls-12" d="M134.7,209.92c-.39-.56-.77-1.13-1.15-1.7.38.57.76,1.14,1.15,1.7Z"/>
    <path class="cls-12" d="M138.33,214.92c-.4-.52-.79-1.05-1.18-1.58.39.53.78,1.05,1.18,1.58Z"/>
    <path class="cls-12" d="M129.73,202.14c-.37-.63-.73-1.26-1.09-1.89.36.63.72,1.26,1.09,1.89Z"/>
    <path class="cls-12" d="M128.2,199.48c-.36-.64-.71-1.29-1.06-1.94.35.65.7,1.3,1.06,1.94Z"/>
    <path class="cls-12" d="M126.74,196.78c-.35-.66-.69-1.33-1.03-2,.34.67.68,1.34,1.03,2Z"/>
    <path class="cls-12" d="M131.32,204.77c-.37-.6-.74-1.21-1.1-1.82.36.61.73,1.22,1.1,1.82Z"/>
    <path class="cls-12" d="M140.24,217.36c-.4-.5-.79-1.01-1.19-1.51.39.51.79,1.01,1.19,1.51Z"/>
    <path class="cls-12" d="M162.73,239.25c-.44-.33-.86-.67-1.29-1.01.43.34.86.68,1.29,1.01Z"/>
    <path class="cls-12" d="M125.34,194.05c-.34-.69-.67-1.37-1-2.07.33.69.66,1.38,1,2.07Z"/>
    <path class="cls-12" d="M155.35,233.2c-.43-.38-.85-.77-1.27-1.15.42.38.84.77,1.27,1.15Z"/>
    <path class="cls-12" d="M160.21,237.29c-.43-.35-.86-.7-1.29-1.05.43.35.85.71,1.29,1.05Z"/>
    <path class="cls-12" d="M142.22,219.76c-.41-.48-.8-.97-1.2-1.46.4.49.8.98,1.2,1.46Z"/>
    <path class="cls-12" d="M153.01,231.08c-.42-.39-.84-.8-1.26-1.19.42.4.83.8,1.26,1.19Z"/>
    <path class="cls-12" d="M144.25,222.12c-.41-.47-.82-.94-1.23-1.42.41.47.81.95,1.23,1.42Z"/>
    <path class="cls-12" d="M146.35,224.43c-.42-.45-.83-.91-1.24-1.36.41.46.82.91,1.24,1.36Z"/>
    <path class="cls-12" d="M148.51,226.69c-.42-.43-.83-.87-1.25-1.31.41.44.83.87,1.25,1.31Z"/>
    <path class="cls-12" d="M150.73,228.91c-.42-.41-.83-.83-1.25-1.25.42.42.83.84,1.25,1.25Z"/>
  </g>
  <g>
    <path class="cls-5" d="M489.14,262.36c-.95.66-1.91,1.32-2.9,1.97l-2.91-1.95"/>
    <line class="cls-11" x1="477.42" y1="258.41" x2="326.58" y2="157.19"/>
    <path class="cls-5" d="M323.63,155.21l-2.91-1.95s1.22.08,3.49.24"/>
    <path class="cls-6" d="M331.02,153.98c37.63,2.69,167.13,12.35,200.65,20.3"/>
    <path class="cls-5" d="M534.99,175.15c1.39.41,2.49.82,3.27,1.23,0,0,.06,1.25-.04,3.49"/>
    <path class="cls-8" d="M537.63,186.47c-2.09,16.06-10.73,48.25-45.79,73.96"/>
  </g>
  <path class="cls-47" d="M292.51,61.33c-2.98-1.61-6.03-2.99-9.11-4.16-8.9-3.37-15.27-11.3-16.29-20.76-1.08-10.02-4.17-19.75-9.06-28.56-53.1-6.79-107.55,19.94-132.8,70.72h0c.17.33.33.67.51,1-.41.14-.8.3-1.21.45-30.38,63.02-5.16,139.15,57.42,171.36,17.72,9.12,36.56,13.74,55.24,14.31,8.61-6.57,15.93-15.1,21.21-25.37,2.63-5.11,4.62-10.37,5.99-15.71,3.27-12.69,12.03-23.24,23.94-28.73,14.74-6.8,24.92-13.56,32.91-29.12-.23-12.14-3.1-49.69-3.86-78.76-.3-11.44-15.17-21.43-24.88-26.66Z"/>
  <path class="cls-19" d="M241.67,15.8c20.19,0,40.21,5.17,57.91,14.94,14.53,8.02,27,18.71,37.07,31.77,12.12,15.72,30.61,24.73,50.72,24.73,6.94,0,13.82-1.1,20.46-3.26,9.61-3.13,19.58-4.71,29.64-4.71,22.47,0,43.81,7.81,61.71,22.58,28.19,23.27,40.28,61.12,30.81,96.44-5.81,21.66-18.08,39.96-35.47,52.93-16.41,12.24-36.73,18.98-57.22,18.98-15.26,0-29.92-3.57-43.59-10.6-10.89-5.6-20.44-13.09-28.39-22.25-7.13-8.22-17.47-12.93-28.36-12.93-8.22,0-16.02,2.63-22.55,7.61-20.92,15.95-46.95,24.74-73.28,24.74-19.27,0-37.79-4.51-55.05-13.39-28.37-14.6-49.45-39.34-59.38-69.65-9.92-30.29-7.57-62.67,6.62-91.18,10.17-20.43,25.88-37.46,45.44-49.25,19-11.45,40.76-17.5,62.91-17.5M241.67,6.8c-47.6,0-93.75,26.2-116.41,71.74-31.5,63.31-6.37,140.38,56.7,172.84,18.96,9.76,39.22,14.39,59.17,14.39,28.37,0,56.13-9.35,78.73-26.58,5.09-3.88,11.11-5.77,17.09-5.77,8,0,15.95,3.37,21.56,9.83,8.46,9.75,18.89,18.08,31.07,24.35,15.29,7.87,31.62,11.6,47.71,11.6,45,0,88.13-29.18,101.38-78.58,10.39-38.7-2.86-80.2-33.77-105.71-20.4-16.84-44.17-24.64-67.44-24.64-11.06,0-22.01,1.76-32.43,5.16-5.81,1.89-11.78,2.82-17.67,2.82-16.77,0-32.98-7.45-43.6-21.22-10.51-13.62-23.89-25.35-39.84-34.16-19.75-10.91-41.15-16.06-62.26-16.07h0Z"/>
  <text class="cls-15" transform="translate(15.76 18.41) rotate(.47)"><tspan class="cls-22" x="0" y="0">S</tspan><tspan class="cls-35" x="10.98" y="0">c</tspan><tspan x="20.7" y="0">ene </tspan><tspan class="cls-24" x="59.62" y="0">B</tspan><tspan x="71.63" y="0">ound</tspan></text>
  <path class="cls-19" d="M349.5,411.48c1.96-8.09-1-16.64-7.54-21.78-6.38-5.01-14.17-5.9-20.84-3.55-4.6,1.62-9.74.28-12.82-3.52-2.25-2.78-5.09-5.14-8.45-6.89-2.74-1.43-5.61-2.33-8.5-2.75.7,1.51,1.17,3.12,1.39,4.78.27,2.06,1.7,3.75,3.66,4.44.68.24,1.35.52,2.01.86,2.14,1.09,5.44,3.19,5.56,5.68.32,6.33,1.14,14.5,1.25,17.15-1.66,3.44-3.84,4.96-7.02,6.52-2.57,1.26-4.42,3.6-5.07,6.39-.27,1.17-.68,2.33-1.22,3.46-.77,1.58-1.75,2.98-2.91,4.19,5.54-.34,10.88-2.38,15.24-5.87,2.43-1.94,5.95-1.65,8.05.65,1.81,1.98,4.01,3.66,6.57,4.9,12.21,5.92,27.23-.64,30.63-14.65Z"/>
  <polygon class="cls-43" points="242.62 119.81 317.39 88 320.93 166.59 243.57 135.67 242.62 119.81"/>
  <circle class="cls-2" cx="245.2" cy="127.61" r="8.22"/>
  <polygon class="cls-38" points="467.54 195.14 455.88 203.61 460.34 217.32 448.68 208.85 437.02 217.32 441.47 203.61 429.82 195.14 444.23 195.14 448.68 181.44 453.13 195.14 467.54 195.14"/>
  <path class="cls-12" d="M199.1,285.47s.02,0,.03,0c0,0,0,0,0,0-.01,0-.02,0-.03,0Z"/>
  <polygon class="cls-38" points="339.95 341.4 339.16 347.12 344.36 349.64 338.67 350.66 337.88 356.39 335.16 351.29 329.46 352.31 333.47 348.14 330.74 343.04 335.95 345.56 339.95 341.4"/>
  <circle class="cls-7" cx="187.59" cy="178.43" r="37.83" transform="translate(-31.91 41.14) rotate(-11.54)"/>
  <text class="cls-17" transform="translate(.03 181.32) rotate(.47)"><tspan class="cls-45" x="0" y="0">S</tspan><tspan class="cls-23" x="8.4" y="0">e</tspan><tspan class="cls-4" x="16.84" y="0">g</tspan><tspan x="26.15" y="0">me</tspan><tspan class="cls-32" x="48.62" y="0">n</tspan><tspan x="57.9" y="0">t</tspan><tspan class="cls-32" x="63.47" y="0">a</tspan><tspan x="71.52" y="0">tion</tspan></text>
  <text class="cls-15" transform="translate(13.1 62.58) rotate(.47)"><tspan class="cls-27" x="0" y="0">M</tspan><tspan x="17.82" y="0">apped </tspan><tspan class="cls-24" x="6.33" y="26.4">R</tspan><tspan x="18.26" y="26.4">e</tspan><tspan class="cls-31" x="29.28" y="26.4">g</tspan><tspan x="41.45" y="26.4">ion</tspan></text>
  <text class="cls-15" transform="translate(333.64 35.24)"><tspan x="0" y="0">Unmapped </tspan><tspan class="cls-24" x="108.52" y="0">R</tspan><tspan x="120.45" y="0">e</tspan><tspan class="cls-31" x="131.47" y="0">g</tspan><tspan x="143.64" y="0">ion</tspan></text>
  <g>
    <line class="cls-10" x1="396.49" y1="47.35" x2="396.49" y2="93.88"/>
    <polygon class="cls-12" points="389.91 91.95 396.49 103.35 403.08 91.95 389.91 91.95"/>
  </g>
  <g>
    <line class="cls-10" x1="141.13" y1="13.01" x2="154.63" y2="25.83"/>
    <polygon class="cls-12" points="148.7 29.27 161.49 32.35 157.76 19.73 148.7 29.27"/>
  </g>
  <g>
    <line class="cls-10" x1="94.08" y1="71.6" x2="135.6" y2="107.78"/>
    <polygon class="cls-12" points="129.82 111.47 142.74 114 138.47 101.55 129.82 111.47"/>
  </g>
  <text class="cls-15" transform="translate(498.25 75.3) rotate(.47)"><tspan class="cls-22" x="0" y="0">S</tspan><tspan class="cls-50" x="10.98" y="0">ea</tspan><tspan class="cls-48" x="32.6" y="0">r</tspan><tspan x="39.58" y="0">ch </tspan><tspan class="cls-48" x="66.31" y="0">v</tspan><tspan x="76.67" y="0">olume</tspan></text>
  <g>
    <line class="cls-10" x1="106.19" y1="178.92" x2="140.03" y2="177.69"/>
    <polygon class="cls-12" points="138.34 184.34 149.49 177.35 137.86 171.19 138.34 184.34"/>
  </g>
  <g>
    <line class="cls-10" x1="558.49" y1="80.35" x2="433.67" y2="153.56"/>
    <polygon class="cls-12" points="432 146.91 425.49 158.35 438.66 158.26 432 146.91"/>
  </g>
  <g>
    <path class="cls-38" d="M302.58,323.52c.24,4.71.76,10.46,1.05,14.13,9.73.45,43.65,2.13,47.13,3.81,0,0,0,.09,0,.24.27-.41.54-.82.8-1.24-.3-6.34-3.3-12.39-8.44-16.43-6.63-5.21-14.75-6.13-21.68-3.69-4.79,1.69-10.13.29-13.33-3.66-2.34-2.89-5.29-5.35-8.79-7.17-1.95-1.02-3.97-1.78-6.02-2.3-.87.7-1.73,1.4-2.58,2.12l-.06.05c.37,1.05.63,2.14.78,3.25.27,2.04,1.69,3.72,3.63,4.4.67.24,1.34.52,1.99.85,2.12,1.08,5.39,3.16,5.51,5.63Z"/>
    <path class="cls-38" d="M312.27,356.84c1.88,2.06,4.17,3.81,6.84,5.1,6.92,3.35,14.71,2.85,20.94-.66-.02-.19-.03-.38-.04-.57-.01,0-.02.02-.03.02l-36.23-21.58c.04.54.07,1,.08,1.36-1.64,3.4-3.81,4.92-6.96,6.46-2.54,1.25-4.38,3.57-5.02,6.33-.27,1.16-.67,2.31-1.21,3.43-.48.99-1.05,1.9-1.68,2.74.59.88,1.23,1.71,1.92,2.49,4.75-.77,9.25-2.76,13.04-5.79,2.52-2.02,6.19-1.71,8.37.68Z"/>
  </g>
  <text class="cls-16" transform="translate(233.84 303.48)"><tspan class="cls-36" x="0" y="0">S</tspan><tspan x="9.58" y="0">ea</tspan><tspan class="cls-49" x="28.44" y="0">r</tspan><tspan x="34.52" y="0">ch </tspan><tspan class="cls-46" x="57.84" y="0">C</tspan><tspan x="68.74" y="0">ut</tspan><tspan class="cls-26" x="85.67" y="0"> </tspan><tspan class="cls-20" x="89.05" y="0">V</tspan><tspan x="99.12" y="0">olume (S</tspan><tspan class="cls-34" x="169.36" y="0">C</tspan><tspan class="cls-33" x="180.72" y="0">V</tspan><tspan x="192.48" y="0">)</tspan></text>
  <line class="cls-9" x1="272.54" y1="368.41" x2="369.77" y2="368.41"/>
  <text class="cls-14" transform="translate(388.39 397.81)"><tspan x="0" y="0">TP </tspan><tspan class="cls-41" x="19.78" y="0">A</tspan><tspan x="29.34" y="0">dded </tspan><tspan class="cls-3" x="67.67" y="0">t</tspan><tspan x="72.85" y="0">o all</tspan><tspan class="cls-42" x="100.18" y="0">o</tspan><tspan x="108.81" y="0">w </tspan><tspan x="11.64" y="19.12">S</tspan><tspan class="cls-39" x="19.5" y="19.12">C</tspan><tspan x="28.93" y="19.12">V </tspan><tspan class="cls-3" x="41.2" y="19.12">t</tspan><tspan x="46.38" y="19.12">o be 1 </tspan><tspan class="cls-29" x="90.5" y="19.12">f</tspan><tspan x="94.94" y="19.12">or </tspan><tspan x=".3" y="38.25">pe</tspan><tspan class="cls-21" x="17.35" y="38.25">r</tspan><tspan class="cls-29" x="23.04" y="38.25">f</tspan><tspan x="27.49" y="38.25">e</tspan><tspan class="cls-44" x="35.47" y="38.25">c</tspan><tspan x="42.82" y="38.25">t p</tspan><tspan class="cls-30" x="60.54" y="38.25">r</tspan><tspan x="65.59" y="38.25">edi</tspan><tspan class="cls-44" x="86.3" y="38.25">c</tspan><tspan x="93.64" y="38.25">tion</tspan></text>
  <g>
    <line class="cls-10" x1="405.99" y1="380.85" x2="353.19" y2="358.1"/>
    <polygon class="cls-12" points="357.57 352.82 344.49 354.35 352.36 364.9 357.57 352.82"/>
  </g>
  <text class="cls-16" transform="translate(9.47 303.42)"><tspan class="cls-37" x="0" y="0">S</tspan><tspan x="9.58" y="0">ea</tspan><tspan class="cls-49" x="28.44" y="0">r</tspan><tspan x="34.52" y="0">ch</tspan><tspan class="cls-26" x="53.77" y="0"> </tspan><tspan class="cls-20" x="57.15" y="0">V</tspan><tspan class="cls-1" x="67.23" y="0">olume </tspan><tspan class="cls-25" x="122.55" y="0">R</tspan><tspan x="132.96" y="0">ecall</tspan></text>
  <polygon class="cls-38" points="112.26 378.4 117.89 395.7 136.08 395.7 121.36 406.4 126.98 423.7 112.26 413.01 97.54 423.7 103.17 406.4 88.45 395.7 106.64 395.7 112.26 378.4"/>
  <line class="cls-9" x1="36.95" y1="368.54" x2="144.8" y2="368.54"/>
  <polygon class="cls-38" points="85.91 313.21 91.53 330.51 109.73 330.51 95.01 341.21 100.63 358.51 85.91 347.82 71.19 358.51 76.81 341.21 62.09 330.51 80.29 330.51 85.91 313.21"/>
  <text class="cls-13" transform="translate(181 410.01)"><tspan x="0" y="0">*</tspan></text>
  <text class="cls-18" transform="translate(427.53 388.31)"><tspan x="0" y="0">=</tspan></text>
  <text class="cls-16" transform="translate(522.79 347.62)"><tspan class="cls-36" x="0" y="0">S</tspan><tspan x="9.58" y="0">ea</tspan><tspan class="cls-49" x="28.44" y="0">r</tspan><tspan x="34.52" y="0">ch </tspan><tspan class="cls-46" x="57.84" y="0">C</tspan><tspan x="68.74" y="0">ut </tspan><tspan class="cls-20" x="-13.33" y="23.03">V</tspan><tspan x="-3.25" y="23.03">olume </tspan><tspan class="cls-40" x="52.07" y="23.03">R</tspan><tspan x="62.48" y="23.03">ecall </tspan><tspan x="16.46" y="46.06">(S</tspan><tspan class="cls-28" x="31.37" y="46.06">C</tspan><tspan x="42.73" y="46.06">VR)</tspan></text>
  <g>
    <path class="cls-19" d="M578.81,147.37c-.03,3.55-2.21,5.44-4.86,5.42-2.75-.02-4.64-2.18-4.62-5.31.03-3.29,2.08-5.43,4.84-5.41,2.85.02,4.66,2.21,4.63,5.3ZM570.75,147.46c-.02,2.23,1.16,4.22,3.29,4.24s3.34-1.93,3.36-4.28c.02-2.08-1.04-4.24-3.27-4.26-2.23-.02-3.35,2.03-3.37,4.29Z"/>
    <path class="cls-19" d="M580.54,141.75h1.34s-.04,4.69-.04,4.69h.03c.48-.83,1.35-1.34,2.55-1.33,1.86.02,3.14,1.56,3.12,3.81-.02,2.66-1.72,3.97-3.38,3.96-1.08,0-1.94-.43-2.5-1.41h-.03s-.09,1.21-.09,1.21h-1.15c.04-.52.07-1.27.08-1.93l.07-9ZM581.81,149.7c0,.17.01.34.06.49.24.94,1.03,1.59,2.02,1.6,1.43.01,2.27-1.13,2.28-2.84.01-1.49-.75-2.77-2.21-2.79-.91,0-1.77.63-2.06,1.64-.05.17-.08.35-.08.57v1.32Z"/>
    <path class="cls-19" d="M587.35,154.91c.63-.04,1.15-.21,1.48-.57.37-.41.53-1,.54-2.78l.05-6.26h1.35s-.06,6.79-.06,6.79c-.01,1.45-.25,2.38-.92,3.05-.61.6-1.59.83-2.31.83l-.14-1.06ZM590.95,143.22c0,.45-.31.83-.87.82-.49,0-.81-.39-.81-.84,0-.46.34-.84.85-.84.51,0,.83.39.82.85Z"/>
    <path class="cls-19" d="M593.71,149.31c.02,1.83,1.16,2.59,2.53,2.6.97,0,1.57-.16,2.06-.37l.24.97c-.48.21-1.31.47-2.5.46-2.29-.02-3.65-1.55-3.63-3.8s1.35-3.99,3.52-3.97c2.45.02,3.06,2.15,3.05,3.52,0,.28-.02.48-.05.63l-5.23-.04ZM597.69,148.37c.02-.85-.34-2.19-1.86-2.2-1.38-.01-1.98,1.23-2.09,2.17l3.95.03Z"/>
    <path class="cls-19" d="M605.94,152.62c-.36.17-1.14.42-2.14.41-2.25-.02-3.69-1.55-3.68-3.83.02-2.29,1.6-3.96,4.03-3.94.8,0,1.51.21,1.87.42l-.32,1.03c-.32-.17-.83-.36-1.57-.37-1.71-.01-2.64,1.26-2.65,2.79-.01,1.72,1.08,2.79,2.56,2.8.77,0,1.28-.17,1.66-.34l.22,1.02Z"/>
    <path class="cls-19" d="M609.43,143.68v1.78s1.92.02,1.92.02v1.03s-1.95-.02-1.95-.02l-.03,4.01c0,.92.25,1.45,1,1.45.37,0,.58-.03.79-.09l.05,1.03c-.26.09-.68.18-1.2.17-.63,0-1.14-.23-1.46-.58-.37-.42-.51-1.08-.51-1.96l.03-4.06h-1.15s0-1.04,0-1.04h1.15s.01-1.38.01-1.38l1.33-.39Z"/>
    <path class="cls-19" d="M622.83,149.24c-.02,2.75-1.95,3.94-3.74,3.92-2-.02-3.56-1.51-3.54-3.86.02-2.48,1.68-3.92,3.72-3.91,2.14.02,3.57,1.58,3.55,3.84ZM616.95,149.27c-.01,1.63.9,2.87,2.22,2.88,1.29.01,2.27-1.2,2.28-2.87,0-1.26-.61-2.85-2.21-2.86-1.58-.01-2.29,1.46-2.3,2.86Z"/>
    <path class="cls-19" d="M624.65,153.04l.05-6.41h-1.03s0-1.04,0-1.04h1.03s0-.35,0-.35c0-1.05.26-2,.88-2.59.51-.49,1.19-.68,1.82-.68.49,0,.89.12,1.15.22l-.19,1.04c-.2-.09-.46-.17-.86-.18-1.15,0-1.45.99-1.46,2.14v.4s1.8.01,1.8.01v1.03s-1.81-.01-1.81-.01l-.05,6.41h-1.34Z"/>
    <path class="cls-19" d="M578,160.73l-.08,10.37h-1.35s.08-10.38.08-10.38h1.35Z"/>
    <path class="cls-19" d="M580.41,165.69c0-.78,0-1.4-.04-2.02h1.2s.07,1.24.07,1.24h.03c.38-.69,1.24-1.37,2.47-1.36,1.03,0,2.63.64,2.6,3.19l-.04,4.43h-1.35s.04-4.3.04-4.3c0-1.2-.43-2.2-1.7-2.21-.88,0-1.58.62-1.83,1.37-.06.17-.09.4-.1.63l-.04,4.48h-1.35s.04-5.44.04-5.44Z"/>
    <path class="cls-19" d="M590.54,161.98v1.78s1.92.02,1.92.02v1.03s-1.95-.02-1.95-.02l-.03,4.01c0,.92.25,1.45,1,1.45.37,0,.58-.03.79-.09l.05,1.03c-.26.09-.68.18-1.2.17-.63,0-1.14-.23-1.46-.58-.37-.42-.51-1.08-.51-1.96l.03-4.06h-1.15s0-1.04,0-1.04h1.15s.01-1.38.01-1.38l1.33-.39Z"/>
    <path class="cls-19" d="M594.61,167.76c.02,1.83,1.16,2.59,2.53,2.6.97,0,1.57-.16,2.07-.37l.24.97c-.48.21-1.31.47-2.5.46-2.29-.02-3.65-1.55-3.63-3.8s1.36-3.99,3.52-3.97c2.45.02,3.06,2.15,3.05,3.52,0,.28-.02.48-.05.63l-5.23-.04ZM598.58,166.83c.02-.85-.33-2.19-1.86-2.2-1.38-.01-1.98,1.23-2.09,2.17l3.95.03Z"/>
    <path class="cls-19" d="M601.57,166.17c0-.88,0-1.63-.04-2.32h1.18s.05,1.49.05,1.49h.05c.35-1,1.18-1.62,2.09-1.61.14,0,.25.02.37.03v1.28c-.15-.03-.29-.03-.47-.04-.95,0-1.64.69-1.83,1.71-.03.18-.05.42-.05.63l-.03,3.97h-1.35s.04-5.13.04-5.13Z"/>
    <path class="cls-19" d="M607.18,167.87c.02,1.83,1.16,2.59,2.53,2.6.97,0,1.57-.16,2.06-.37l.24.97c-.48.21-1.31.47-2.5.46-2.29-.02-3.65-1.55-3.63-3.8s1.36-3.99,3.53-3.97c2.45.02,3.06,2.15,3.05,3.52,0,.28-.02.48-.05.63l-5.23-.04ZM611.16,166.93c.02-.85-.33-2.19-1.86-2.2-1.38-.01-1.98,1.23-2.1,2.17l3.95.03Z"/>
    <path class="cls-19" d="M613.93,170.03c.41.25,1.12.53,1.79.54.97,0,1.43-.46,1.44-1.1,0-.65-.38-.99-1.36-1.37-1.35-.5-1.97-1.23-1.97-2.12,0-1.2,1-2.18,2.59-2.16.75,0,1.41.21,1.81.48l-.33.98c-.29-.19-.83-.45-1.52-.46-.8,0-1.23.45-1.24,1,0,.62.42.9,1.39,1.29,1.27.49,1.94,1.14,1.93,2.25-.01,1.32-1.05,2.24-2.79,2.22-.82,0-1.57-.23-2.09-.54l.33-1.01Z"/>
    <path class="cls-19" d="M621.9,162.23v1.78s1.92.02,1.92.02v1.03s-1.95-.02-1.95-.02l-.03,4.01c0,.92.25,1.45,1,1.45.37,0,.58-.03.79-.09l.05,1.03c-.26.09-.68.18-1.2.17-.63,0-1.14-.23-1.46-.58-.37-.42-.51-1.08-.51-1.96l.03-4.06h-1.15s0-1.04,0-1.04h1.15s.01-1.38.01-1.38l1.33-.39Z"/>
  </g>
  <g>
    <line class="cls-10" x1="565.49" y1="162.35" x2="468.65" y2="187.93"/>
    <polygon class="cls-12" points="468.83 181.07 459.49 190.35 472.2 193.8 468.83 181.07"/>
  </g>
  <polygon class="cls-38" points="178.44 67.3 182.49 56.35 186.55 67.3 197.49 71.35 186.55 75.4 182.49 86.35 178.44 75.4 167.49 71.35 178.44 67.3"/>
  <polygon class="cls-38" points="179.66 170.52 187.49 149.35 195.33 170.52 216.49 178.35 195.33 186.18 187.49 207.35 179.66 186.18 158.49 178.35 179.66 170.52"/>
  <polygon class="cls-38" points="295.99 211.55 303.74 204.05 301.12 214.51 311.49 217.47 301.12 220.43 303.74 230.89 295.99 223.39 288.24 230.89 290.87 220.43 280.49 217.47 290.87 214.51 288.24 204.05 295.99 211.55"/>
  <polygon class="cls-38" points="61.69 393.63 69.44 386.12 66.82 396.59 77.19 399.55 66.82 402.51 69.44 412.97 61.69 405.47 53.94 412.97 56.56 402.51 46.19 399.55 56.56 396.59 53.94 386.12 61.69 393.63"/>
</svg>